<svg xmlns="http://www.w3.org/2000/svg" width="256" height="256" viewBox="0 0 256 256" fill="none">
<defs>
  <linearGradient id="purpleGrad" x1="32" y1="32" x2="224" y2="224" gradientUnits="userSpaceOnUse">
    <stop stop-color="#7C6CFF"/>
    <stop offset="1" stop-color="#4F46E5"/>
  </linearGradient>
  <linearGradient id="blueGrad" x1="32" y1="32" x2="224" y2="224" gradientUnits="userSpaceOnUse">
    <stop stop-color="#60A5FA"/>
    <stop offset="1" stop-color="#3B82F6"/>
  </linearGradient>
  <linearGradient id="greenGrad" x1="32" y1="32" x2="224" y2="224" gradientUnits="userSpaceOnUse">
    <stop stop-color="#34D399"/>
    <stop offset="1" stop-color="#10B981"/>
  </linearGradient>
  <linearGradient id="yellowGrad" x1="32" y1="32" x2="224" y2="224" gradientUnits="userSpaceOnUse">
    <stop stop-color="#FCD34D"/>
    <stop offset="1" stop-color="#F59E0B"/>
  </linearGradient>
  <linearGradient id="redGrad" x1="32" y1="32" x2="224" y2="224" gradientUnits="userSpaceOnUse">
    <stop stop-color="#FF7A66"/>
    <stop offset="1" stop-color="#FF4D4F"/>
  </linearGradient>
  <linearGradient id="tealGrad" x1="32" y1="32" x2="224" y2="224" gradientUnits="userSpaceOnUse">
    <stop stop-color="#2DD4BF"/>
    <stop offset="1" stop-color="#14B8A6"/>
  </linearGradient>
  <linearGradient id="lavenderGrad" x1="32" y1="32" x2="224" y2="224" gradientUnits="userSpaceOnUse">
    <stop stop-color="#D8CCFF"/>
    <stop offset="1" stop-color="#BCAEFF"/>
  </linearGradient>
  <linearGradient id="folderGrad" x1="48" y1="56" x2="208" y2="200" gradientUnits="userSpaceOnUse">
    <stop stop-color="#6EA8FF"/>
    <stop offset="1" stop-color="#4F46E5"/>
  </linearGradient>
</defs>

<path d="M 66 84 H 190 L 208 132 V 176 C 208 192 196 204 180 204 H 76 C 60 204 48 192 48 176 V 132 Z" fill="url(#purpleGrad)"/>
<path d="M 66 84 H 190 L 176 136 H 144 C 140 148 130 156 118 156 H 106 C 94 156 84 148 80 136 H 48 Z" fill="#C8BFFF" opacity="0.95"/>
</svg>
