<svg xmlns="http://www.w3.org/2000/svg" width="256" height="256" viewBox="0 0 256 256" fill="none">
<defs>
  <linearGradient id="purpleGrad" x1="32" y1="32" x2="224" y2="224" gradientUnits="userSpaceOnUse">
    <stop stop-color="#7C6CFF"/>
    <stop offset="1" stop-color="#4F46E5"/>
  </linearGradient>
  <linearGradient id="blueGrad" x1="32" y1="32" x2="224" y2="224" gradientUnits="userSpaceOnUse">
    <stop stop-color="#60A5FA"/>
    <stop offset="1" stop-color="#3B82F6"/>
  </linearGradient>
  <linearGradient id="greenGrad" x1="32" y1="32" x2="224" y2="224" gradientUnits="userSpaceOnUse">
    <stop stop-color="#34D399"/>
    <stop offset="1" stop-color="#10B981"/>
  </linearGradient>
  <linearGradient id="yellowGrad" x1="32" y1="32" x2="224" y2="224" gradientUnits="userSpaceOnUse">
    <stop stop-color="#FCD34D"/>
    <stop offset="1" stop-color="#F59E0B"/>
  </linearGradient>
  <linearGradient id="redGrad" x1="32" y1="32" x2="224" y2="224" gradientUnits="userSpaceOnUse">
    <stop stop-color="#FF7A66"/>
    <stop offset="1" stop-color="#FF4D4F"/>
  </linearGradient>
  <linearGradient id="tealGrad" x1="32" y1="32" x2="224" y2="224" gradientUnits="userSpaceOnUse">
    <stop stop-color="#2DD4BF"/>
    <stop offset="1" stop-color="#14B8A6"/>
  </linearGradient>
  <linearGradient id="lavenderGrad" x1="32" y1="32" x2="224" y2="224" gradientUnits="userSpaceOnUse">
    <stop stop-color="#D8CCFF"/>
    <stop offset="1" stop-color="#BCAEFF"/>
  </linearGradient>
  <linearGradient id="folderGrad" x1="48" y1="56" x2="208" y2="200" gradientUnits="userSpaceOnUse">
    <stop stop-color="#6EA8FF"/>
    <stop offset="1" stop-color="#4F46E5"/>
  </linearGradient>
</defs>

    <path d="M 128.00 64.00
             C 100.00 64.00, 88.00 84.00, 88.00 108.00
             V 144.00
             C 88.00 156.00, 80.00 168.00, 72.00 176.00
             C 72.00 182.00, 76.00 188.00, 84.00 188.00
             H 172.00
             C 180.00 188.00, 184.00 182.00, 184.00 176.00
             C 176.00 168.00, 168.00 156.00, 168.00 144.00
             V 108.00
             C 168.00 84.00, 156.00 64.00, 128.00 64.00 Z" fill="url(#yellowGrad)"/>
    <rect x="120.00" y="52.00" width="16.00" height="18.00" rx="8.00" fill="url(#yellowGrad)"/>
    <path d="M 112.00 192.00 Q 128.00 208.00 144.00 192.00" stroke="url(#yellowGrad)" stroke-width="10.00" stroke-linecap="round"/>
    
        <circle cx="174.00" cy="84.00" r="24.00" fill="url(#redGrad)" stroke="white" stroke-width="6.00"/>
        <text x="174.00" y="92.00" text-anchor="middle" font-family="Arial, Helvetica, sans-serif" font-weight="700" font-size="32.00" fill="white">1</text>
        </svg>
