<svg xmlns="http://www.w3.org/2000/svg" width="256" height="256" viewBox="0 0 256 256" fill="none">
<defs>
  <linearGradient id="purpleGrad" x1="32" y1="32" x2="224" y2="224" gradientUnits="userSpaceOnUse">
    <stop stop-color="#7C6CFF"/>
    <stop offset="1" stop-color="#4F46E5"/>
  </linearGradient>
  <linearGradient id="blueGrad" x1="32" y1="32" x2="224" y2="224" gradientUnits="userSpaceOnUse">
    <stop stop-color="#60A5FA"/>
    <stop offset="1" stop-color="#3B82F6"/>
  </linearGradient>
  <linearGradient id="greenGrad" x1="32" y1="32" x2="224" y2="224" gradientUnits="userSpaceOnUse">
    <stop stop-color="#34D399"/>
    <stop offset="1" stop-color="#10B981"/>
  </linearGradient>
  <linearGradient id="yellowGrad" x1="32" y1="32" x2="224" y2="224" gradientUnits="userSpaceOnUse">
    <stop stop-color="#FCD34D"/>
    <stop offset="1" stop-color="#F59E0B"/>
  </linearGradient>
  <linearGradient id="redGrad" x1="32" y1="32" x2="224" y2="224" gradientUnits="userSpaceOnUse">
    <stop stop-color="#FF7A66"/>
    <stop offset="1" stop-color="#FF4D4F"/>
  </linearGradient>
  <linearGradient id="tealGrad" x1="32" y1="32" x2="224" y2="224" gradientUnits="userSpaceOnUse">
    <stop stop-color="#2DD4BF"/>
    <stop offset="1" stop-color="#14B8A6"/>
  </linearGradient>
  <linearGradient id="lavenderGrad" x1="32" y1="32" x2="224" y2="224" gradientUnits="userSpaceOnUse">
    <stop stop-color="#D8CCFF"/>
    <stop offset="1" stop-color="#BCAEFF"/>
  </linearGradient>
  <linearGradient id="grayGrad" x1="32" y1="32" x2="224" y2="224" gradientUnits="userSpaceOnUse">
    <stop stop-color="#94A3B8"/>
    <stop offset="1" stop-color="#64748B"/>
  </linearGradient>
</defs>

<path d="M 42 96 C 42 78 56 64 74 64 H 110 C 124 64 132 78 144 78 H 182 C 200 78 214 92 214 110 V 176 C 214 194 200 208 182 208 H 74 C 56 208 42 194 42 176 Z" fill="url(#blueGrad)"/>
<circle cx="176" cy="82" r="30" fill="white"/>
<path d="M 176 68 V 96" stroke="url(#purpleGrad)" stroke-width="10" stroke-linecap="round"/>
<path d="M 162 82 H 190" stroke="url(#purpleGrad)" stroke-width="10" stroke-linecap="round"/>
</svg>
