<svg xmlns="http://www.w3.org/2000/svg" width="256" height="256" viewBox="0 0 256 256" fill="none">
<defs>
  <linearGradient id="purpleGrad" x1="32" y1="32" x2="224" y2="224" gradientUnits="userSpaceOnUse">
    <stop stop-color="#7C6CFF"/>
    <stop offset="1" stop-color="#4F46E5"/>
  </linearGradient>
  <linearGradient id="blueGrad" x1="32" y1="32" x2="224" y2="224" gradientUnits="userSpaceOnUse">
    <stop stop-color="#60A5FA"/>
    <stop offset="1" stop-color="#3B82F6"/>
  </linearGradient>
  <linearGradient id="greenGrad" x1="32" y1="32" x2="224" y2="224" gradientUnits="userSpaceOnUse">
    <stop stop-color="#34D399"/>
    <stop offset="1" stop-color="#10B981"/>
  </linearGradient>
  <linearGradient id="yellowGrad" x1="32" y1="32" x2="224" y2="224" gradientUnits="userSpaceOnUse">
    <stop stop-color="#FCD34D"/>
    <stop offset="1" stop-color="#F59E0B"/>
  </linearGradient>
  <linearGradient id="redGrad" x1="32" y1="32" x2="224" y2="224" gradientUnits="userSpaceOnUse">
    <stop stop-color="#FF7A66"/>
    <stop offset="1" stop-color="#FF4D4F"/>
  </linearGradient>
  <linearGradient id="tealGrad" x1="32" y1="32" x2="224" y2="224" gradientUnits="userSpaceOnUse">
    <stop stop-color="#2DD4BF"/>
    <stop offset="1" stop-color="#14B8A6"/>
  </linearGradient>
  <linearGradient id="lavenderGrad" x1="32" y1="32" x2="224" y2="224" gradientUnits="userSpaceOnUse">
    <stop stop-color="#D8CCFF"/>
    <stop offset="1" stop-color="#BCAEFF"/>
  </linearGradient>
  <linearGradient id="grayGrad" x1="32" y1="32" x2="224" y2="224" gradientUnits="userSpaceOnUse">
    <stop stop-color="#94A3B8"/>
    <stop offset="1" stop-color="#64748B"/>
  </linearGradient>
</defs>

<path d="M 48 122 L 196 58 C 206 54 214 64 210 74 L 152 202 C 148 212 134 214 128 204 L 104 156 L 56 138 C 44 134 42 126 48 122 Z" fill="url(#purpleGrad)"/>
<path d="M 104 156 L 196 58" stroke="white" stroke-opacity="0.9" stroke-width="10" stroke-linecap="round"/>
</svg>
