<svg xmlns="http://www.w3.org/2000/svg" width="640" height="220" viewBox="0 0 640 220" fill="none">
    <defs>
      <filter id="shadow" x="-20%" y="-20%" width="140%" height="140%">
        <feDropShadow dx="0" dy="8" stdDeviation="12" flood-color="#F1E1D8" flood-opacity="0.55"/>
      </filter>
      <linearGradient id="gradWarm" x1="0" y1="0" x2="1" y2="1">
        <stop offset="0%" stop-color="#FF7E6B"/>
        <stop offset="100%" stop-color="#FFB14A"/>
      </linearGradient>
      <linearGradient id="gradBlue" x1="0" y1="0" x2="1" y2="1">
        <stop offset="0%" stop-color="#7EC6FF"/>
        <stop offset="100%" stop-color="#4E88FF"/>
      </linearGradient>
      <linearGradient id="gradStar" x1="0" y1="0" x2="1" y2="1">
        <stop offset="0%" stop-color="#FFD55A"/>
        <stop offset="100%" stop-color="#FFB325"/>
      </linearGradient>
      <linearGradient id="gradFlame" x1="0" y1="0" x2="1" y2="1">
        <stop offset="0%" stop-color="#FF7E3E"/>
        <stop offset="100%" stop-color="#FFCD54"/>
      </linearGradient>
      <linearGradient id="gradClock" x1="0" y1="0" x2="1" y2="1">
        <stop offset="0%" stop-color="#FF7F79"/>
        <stop offset="100%" stop-color="#FFA27C"/>
      </linearGradient>
      <style>
        .title { font-family: 'Noto Sans CJK SC','Noto Sans CJK JP','Microsoft YaHei',sans-serif; font-weight: 700; font-size: 30px; fill: #3A221B; }
        .desc { font-family: 'Noto Sans CJK SC','Noto Sans CJK JP','Microsoft YaHei',sans-serif; font-weight: 400; font-size: 18px; fill: #8C766F; }
        .mini { font-family: 'Noto Sans CJK SC','Noto Sans CJK JP','Microsoft YaHei',sans-serif; font-weight: 600; font-size: 14px; fill: #8C766F; }
      </style>
    </defs>
<rect width="640" height="220" fill="#FCF7F4"/><rect x="14" y="14" rx="28" ry="28" width="612" height="192" fill="#FEF8F5" stroke="#EADFD8" stroke-width="2" filter="url(#shadow)"/>
    <circle cx="110" cy="110" r="62" fill="#FFFFFF" stroke="#F7E9E0" stroke-width="1.5"/>
    <ellipse cx="110" cy="165" rx="34" ry="8" fill="#F6EAE3"/>

    <g transform="translate(76 76) rotate(-8)">
      <text x="0" y="50" font-family="Arial Black,Arial,sans-serif" font-size="68" font-style="italic" font-weight="900" fill="#FF6A69">100</text>
      <path d="M18 68 q35 6 76 -2" stroke="#FF6A69" stroke-width="8" stroke-linecap="round" fill="none"/>
      <path d="M26 84 q28 3 56 -3" stroke="#FF6A69" stroke-width="7" stroke-linecap="round" fill="none"/>
    </g>
    
    <g transform="translate(560 34)">
      <rect x="0" y="10" width="28" height="24" rx="5" fill="#FFFDFC" stroke="#8F7E77" stroke-width="2"/>
      <path d="M8 10 v-4 a6 6 0 0 1 12 0 v4" stroke="#8F7E77" stroke-width="3" stroke-linecap="round" fill="none"/>
      <circle cx="14" cy="21" r="2.2" fill="#8F7E77"/>
      <rect x="13" y="21" width="2" height="6" rx="1" fill="#8F7E77"/>
    </g>
    <circle cx="562" cy="182" r="5" fill="#A0877D" opacity="0.9"/><text x="562" y="186" class="mini" text-anchor="end" fill="#9F8C84">未解锁</text><text x="200" y="102" class="title">百任务达人</text><text x="200" y="146" class="desc">累计完成 100 个任务</text></svg>