<svg xmlns="http://www.w3.org/2000/svg" width="220" height="220" viewBox="0 0 220 220" fill="none">
    <defs>
      <filter id="shadow" x="-30%" y="-30%" width="160%" height="160%">
        <feDropShadow dx="0" dy="6" stdDeviation="8" flood-color="#EEDFD7" flood-opacity="0.75"/>
      </filter>
      <linearGradient id="gBlue" x1="0" y1="0" x2="1" y2="1">
        <stop offset="0%" stop-color="#7EC6FF"/><stop offset="100%" stop-color="#5E9BFF"/>
      </linearGradient>
      <linearGradient id="gWarm" x1="0" y1="0" x2="1" y2="1">
        <stop offset="0%" stop-color="#FF7268"/><stop offset="100%" stop-color="#FFB23D"/>
      </linearGradient>
      <linearGradient id="gFlame" x1="0" y1="0" x2="1" y2="1">
        <stop offset="0%" stop-color="#FF7E3E"/><stop offset="100%" stop-color="#FFCD54"/>
      </linearGradient>
      <linearGradient id="gGold" x1="0" y1="0" x2="1" y2="1">
        <stop offset="0%" stop-color="#FFD968"/><stop offset="100%" stop-color="#FFB52A"/>
      </linearGradient>
      <linearGradient id="gClock" x1="0" y1="0" x2="1" y2="1">
        <stop offset="0%" stop-color="#FF7F79"/><stop offset="100%" stop-color="#FFA27C"/>
      </linearGradient>
      <style>
        .num { font-family: 'Noto Sans CJK SC','Noto Sans CJK JP','Microsoft YaHei',sans-serif; font-weight: 800; fill: #FF7268; }
        .small { font-family: 'Noto Sans CJK SC','Noto Sans CJK JP','Microsoft YaHei',sans-serif; font-weight: 700; fill: #FFFFFF; }
      </style>
    </defs>

    <ellipse cx="110" cy="181" rx="45" ry="12" fill="#F0E1D9"/>
    <circle cx="110" cy="104" r="66" fill="#FFF8F4" stroke="#F2E5DD" stroke-width="2" filter="url(#shadow)"/>
    
    <g>
      <path d="M144 77 a26 26 0 1 1 -23 -39 a22 22 0 1 0 23 39 z" fill="#7D68FF"/>
      <ellipse cx="110" cy="122" rx="31" ry="29" fill="#B48D5E"/>
      <ellipse cx="96" cy="118" rx="14" ry="16" fill="#F6E6D2"/>
      <ellipse cx="124" cy="118" rx="14" ry="16" fill="#F6E6D2"/>
      <circle cx="96" cy="118" r="7" fill="#FFFFFF"/>
      <circle cx="124" cy="118" r="7" fill="#FFFFFF"/>
      <circle cx="96" cy="118" r="3.2" fill="#495D9D"/>
      <circle cx="124" cy="118" r="3.2" fill="#495D9D"/>
      <path d="M107 129 l3 4 l3 -4 z" fill="#FFB23D"/>
      <path d="M98 139 q12 7 24 0" stroke="#6B4C44" stroke-width="3" stroke-linecap="round" fill="none"/>
      <path d="M88 96 l-10 -9" stroke="#9B7751" stroke-width="8" stroke-linecap="round"/>
      <path d="M132 96 l10 -9" stroke="#9B7751" stroke-width="8" stroke-linecap="round"/>
    </g>
    <path d="M57 87 l6 -2 l2 -6 l2 6 l6 2 l-6 2 l-2 6 l-2 -6 z" fill="#FFD35E"/>
    <path d="M164 86 l6 0 l-3 7 z" fill="#8F78FF"/>
    </svg>