<svg xmlns="http://www.w3.org/2000/svg" width="220" height="220" viewBox="0 0 220 220" fill="none">
    <defs>
      <filter id="shadow" x="-30%" y="-30%" width="160%" height="160%">
        <feDropShadow dx="0" dy="6" stdDeviation="8" flood-color="#EEDFD7" flood-opacity="0.75"/>
      </filter>
      <linearGradient id="gBlue" x1="0" y1="0" x2="1" y2="1">
        <stop offset="0%" stop-color="#7EC6FF"/><stop offset="100%" stop-color="#5E9BFF"/>
      </linearGradient>
      <linearGradient id="gWarm" x1="0" y1="0" x2="1" y2="1">
        <stop offset="0%" stop-color="#FF7268"/><stop offset="100%" stop-color="#FFB23D"/>
      </linearGradient>
      <linearGradient id="gFlame" x1="0" y1="0" x2="1" y2="1">
        <stop offset="0%" stop-color="#FF7E3E"/><stop offset="100%" stop-color="#FFCD54"/>
      </linearGradient>
      <linearGradient id="gGold" x1="0" y1="0" x2="1" y2="1">
        <stop offset="0%" stop-color="#FFD968"/><stop offset="100%" stop-color="#FFB52A"/>
      </linearGradient>
      <linearGradient id="gClock" x1="0" y1="0" x2="1" y2="1">
        <stop offset="0%" stop-color="#FF7F79"/><stop offset="100%" stop-color="#FFA27C"/>
      </linearGradient>
      <style>
        .num { font-family: 'Noto Sans CJK SC','Noto Sans CJK JP','Microsoft YaHei',sans-serif; font-weight: 800; fill: #FF7268; }
        .small { font-family: 'Noto Sans CJK SC','Noto Sans CJK JP','Microsoft YaHei',sans-serif; font-weight: 700; fill: #FFFFFF; }
      </style>
    </defs>

    <ellipse cx="110" cy="181" rx="45" ry="12" fill="#F0E1D9"/>
    <circle cx="110" cy="104" r="66" fill="#FFF8F4" stroke="#F2E5DD" stroke-width="2" filter="url(#shadow)"/>
    
    <g transform="translate(56 76) rotate(-8)">
      <text x="0" y="52" font-family="Noto Sans CJK SC, Noto Sans CJK JP, Microsoft YaHei, sans-serif" font-size="72" font-style="italic" font-weight="900" fill="#FF7268">50</text>
      <path d="M16 70 q34 7 76 -3" stroke="#FF7268" stroke-width="8" stroke-linecap="round" fill="none"/>
      <path d="M24 86 q28 4 54 -4" stroke="#FF7268" stroke-width="7" stroke-linecap="round" fill="none"/>
    </g>
    
    <path d="M47 138 l6 -2 l2 -6 l2 6 l6 2 l-6 2 l-2 6 l-2 -6 z" fill="#FFD35E" opacity="0.9"/>
    <path d="M164 69 l10 0 l-5 10 z" fill="#8F78FF" opacity="0.85"/>
    <path d="M171 138 l5 -1 l1 -5 l1 5 l5 1 l-5 1 l-1 5 l-1 -5 z" fill="#FFB870"/>
    
    </svg>